<svg xmlns="http://www.w3.org/2000/svg" width="430" height="430" style="width:100%;height:100%;transform:translate3d(0,0,0);content-visibility:visible" viewBox="0 0 430 430"><defs><clipPath id="c"><path d="M0 0h430v430H0z"/></clipPath><clipPath id="f"><path d="M0 0h430v430H0z"/></clipPath><clipPath id="d"><path d="M0 0h430v430H0z"/></clipPath><mask id="g" mask-type="alpha"><use xmlns:ns1="http://www.w3.org/1999/xlink" ns1:href="#a"/></mask><mask id="e" mask-type="alpha"><use xmlns:ns2="http://www.w3.org/1999/xlink" ns2:href="#b"/></mask><g id="a" style="display:none"><path fill-opacity="0" stroke-linecap="round" stroke-linejoin="round" class="primary"/><path/></g><g id="b" style="display:block"><path fill-opacity="0" stroke="red" stroke-linecap="round" stroke-linejoin="round" stroke-width="7" d="M215.148 190H85v150c0 22.091 17.909 40 40 40h180c22.091 0 40-17.909 40-40V190q0 0 0 0z" class="primary"/><path fill="red" d="M215.148 190H85v150c0 22.091 17.909 40 40 40h180c22.091 0 40-17.909 40-40V190z"/></g></defs><g clip-path="url(#c)"><g clip-path="url(#d)" style="display:block"><path fill="none" stroke="#FFF" stroke-linecap="round" stroke-linejoin="round" stroke-width="20" d="M-85.208 59.213V1.389c0-47.532 38.049-86.064 84.984-86.064S84.76-46.143 84.76 1.389q0 0 0 0v58.906" class="secondary" style="display:block" transform="translate(215.283 124.906)"/><g style="display:block"><path fill="none" stroke="#2FE848" stroke-linecap="round" stroke-linejoin="round" stroke-width="7" d="M215.148 190H85v150c0 22.091 17.909 40 40 40h180c22.091 0 40-17.909 40-40V190q0 0 0 0z" class="primary"/><path fill="none" stroke="#2FE848" stroke-linecap="round" stroke-linejoin="round" stroke-opacity=".5" stroke-width="7" d="M.148-95H-130V55c0 22.091 17.909 40 40 40H90c22.091 0 40-17.909 40-40V-95q0 0 0 0z" class="primary" style="mix-blend-mode:multiply" transform="translate(215 285)"/><path fill="#2FE848" d="M215.148 190H85v150c0 22.091 17.909 40 40 40h180c22.091 0 40-17.909 40-40V190z" class="primary"/><path fill="#2FE848" fill-opacity=".5" d="M.148-95H-130V55c0 22.091 17.909 40 40 40H90c22.091 0 40-17.909 40-40V-95z" class="primary" style="mix-blend-mode:multiply" transform="translate(215 285)"/></g><g mask="url(#e)" style="display:block"><path fill="none" stroke="#2FE848" stroke-linecap="round" stroke-linejoin="round" stroke-width="7" d="M274.148 190H144v150c0 22.091 17.909 40 40 40h180c22.091 0 40-17.909 40-40V190q0 0 0 0z" class="primary"/><path fill="#2FE848" d="M274.148 190H144v150c0 22.091 17.909 40 40 40h180c22.091 0 40-17.909 40-40V190z" class="primary"/></g><path fill="none" stroke="#095C14" stroke-linecap="round" stroke-linejoin="round" stroke-width="7" d="M215.005 230v15.895m0 78.638V340m23.026-94.115h-30.545c-10.886 0-19.711 8.814-19.711 19.7s8.825 19.711 19.711 19.711h15.089c10.876 0 19.681 8.834 19.65 19.71-.031 10.896-8.917 19.681-19.446 19.599l-34.422-.296" class="tertiary" style="display:block"/></g><g clip-path="url(#f)" style="display:none"><path fill="none" class="secondary" style="display:none"/><g style="display:none"><path fill="none" class="primary"/><path fill="none" class="primary" style="mix-blend-mode:multiply"/><path class="primary"/><path class="primary" style="mix-blend-mode:multiply"/></g><g mask="url(#g)" style="display:none"><path fill="none" class="primary"/><path class="primary"/></g><g fill="none" style="display:none"><path class="tertiary"/><path class="tertiary"/></g></g></g></svg>